<?xml version="1.0" encoding="utf-8"?>
<!-- Generator: Adobe Illustrator 22.1.0, SVG Export Plug-In . SVG Version: 6.00 Build 0)  -->
<svg version="1.1" id="레이어_1" xmlns="http://www.w3.org/2000/svg" xmlns:xlink="http://www.w3.org/1999/xlink" x="0px"
	 y="0px" viewBox="0 0 300 100" style="enable-background:new 0 0 300 100;" xml:space="preserve">
<style type="text/css">
	.st0{fill:#F9F9FB;}
</style>
<g>
	<path class="st0" d="M38,46.4V36.1h4.7V62h-4.6v-1.9c-1.1,1.4-2.8,2.4-5.2,2.4c-4.8,0-8.4-3.9-8.4-9.2c0-5.2,3.6-9.2,8.4-9.2
		C35.2,44.1,36.9,45,38,46.4z M29.2,53.3c0,2.7,1.7,4.8,4.5,4.8c2.7,0,4.5-2.1,4.5-4.8c0-2.8-1.8-4.8-4.5-4.8
		C31,48.5,29.2,50.6,29.2,53.3z"/>
	<path class="st0" d="M63.9,62h-4.6v-1.9c-1.1,1.4-2.8,2.4-5.2,2.4c-4.8,0-8.4-3.9-8.4-9.2c0-5.2,3.6-9.2,8.4-9.2
		c2.4,0,4.1,1,5.2,2.4v-1.9h4.6V62z M50.4,53.3c0,2.7,1.7,4.8,4.5,4.8c2.7,0,4.5-2.1,4.5-4.8c0-2.8-1.8-4.8-4.5-4.8
		C52.2,48.5,50.4,50.6,50.4,53.3z"/>
	<path class="st0" d="M73.3,52.8V62h-5V36.8h10.3c6,0,9.2,3.1,9.2,8c0,4.8-3.2,8-9.2,8H73.3z M73.3,41.4v6.8h5.2
		c2.7,0,4.2-1.1,4.2-3.4c0-2.3-1.4-3.4-4.2-3.4H73.3z"/>
	<path class="st0" d="M108,53.3c0,5.3-4,9.2-9.5,9.2c-5.4,0-9.4-3.9-9.4-9.2c0-5.3,4-9.2,9.4-9.2C103.9,44.1,108,48,108,53.3z
		 M93.9,53.3c0,2.8,2,4.8,4.6,4.8s4.6-2,4.6-4.8c0-2.8-2-4.8-4.6-4.8S93.9,50.4,93.9,53.3z"/>
	<path class="st0" d="M123.3,49.4c-1.4-0.7-3.6-1.4-5.6-1.4c-1.8,0-2.7,0.6-2.7,1.6c0,1,1.3,1.3,2.8,1.5l1.5,0.2
		c3.8,0.6,5.9,2.3,5.9,5.2c0,3.6-3,5.9-8,5.9c-2.4,0-5.5-0.5-7.8-2.1l1.9-3.6c1.5,1,3.3,1.7,5.9,1.7c2.2,0,3.2-0.6,3.2-1.6
		c0-0.8-0.9-1.3-2.9-1.6l-1.4-0.2c-4-0.6-6-2.3-6-5.3c0-3.6,2.8-5.7,7.4-5.7c2.8,0,5,0.5,7.3,1.7L123.3,49.4z"/>
	<path class="st0" d="M151,41.7l-1.8,1.2c-1.7-2.6-4.8-4.3-8.4-4.3c-6,0-10.6,4.3-10.6,10.8s4.6,10.8,10.6,10.8
		c3.5,0,6.6-1.6,8.3-4.3l1.8,1.3c-2.1,3.2-5.9,5.1-10.1,5.1c-7.4,0-12.9-5.3-12.9-12.9c0-7.6,5.5-12.9,12.9-12.9
		C145.1,36.5,149,38.5,151,41.7z"/>
	<path class="st0" d="M171.1,62h-2v-3.3c-1.4,2.1-3.6,3.5-6.7,3.5c-4.8,0-8.5-3.7-8.5-8.7c0-5,3.7-8.8,8.5-8.8
		c3.1,0,5.3,1.4,6.7,3.5v-3.3h2V62z M156,53.5c0,3.8,2.8,6.8,6.6,6.8c3.8,0,6.6-2.9,6.6-6.8c0-3.9-2.8-6.8-6.6-6.8
		C158.7,46.7,156,49.7,156,53.5z"/>
	<path class="st0" d="M188,46.9h-7.3V62h-2.1V46.9h-4.2v-1.9h4.2v-2.9c0-3.7,1.6-6.3,5.6-6.3c1.9,0,3.4,0.5,4.6,1.3l-0.7,1.7
		c-1-0.6-2.3-1-3.7-1c-2.6,0-3.7,1.6-3.7,4.4v2.9h7.3V46.9z"/>
	<path class="st0" d="M205.7,53.4c0,0.3,0,0.6,0,0.8h-14.2c0.3,3.9,3.1,6.2,6.6,6.2c2.4,0,4.2-0.9,5.7-2.4l1.1,1.4
		c-2.1,2.2-4.5,2.8-7,2.8c-5,0-8.5-3.6-8.5-8.7c0-5.1,3.6-8.8,8.4-8.8C202.3,44.8,205.7,48.4,205.7,53.4z M191.5,52.5h12.1
		c-0.3-3.5-2.7-5.9-5.9-5.9C194.3,46.6,191.9,49.1,191.5,52.5z"/>
</g>
</svg>
